<?xml version="1.0" encoding="utf-8"?>
<!-- Generator: Adobe Illustrator 15.1.0, SVG Export Plug-In . SVG Version: 6.00 Build 0)  -->
<!DOCTYPE svg PUBLIC "-//W3C//DTD SVG 1.1//EN" "http://www.w3.org/Graphics/SVG/1.1/DTD/svg11.dtd">
<svg version="1.1" id="Layer_1" xmlns="http://www.w3.org/2000/svg" xmlns:xlink="http://www.w3.org/1999/xlink" x="0px" y="0px"
	 width="458.528px" height="300.842px" viewBox="0 0 458.528 300.842" enable-background="new 0 0 458.528 300.842"
	 xml:space="preserve">
<path fill="#EF4035" d="M322.243,174.859c3.693,2.777,5.776,7.72,4.943,13.427c-0.667,4.693-2.68,7.79-5.874,9.623
	c-3.263,1.93-6.859,2.277-10.386,0.847c-3.86-1.514-6.443-4.693-7.457-9.47c-0.166-0.847-0.249-1.764-0.347-2.68
	c0-1.847,0.264-3.61,0.764-5.291C306.4,173.026,315.453,169.93,322.243,174.859z M241.944,178.97h-8.29v19.286h9.054
	c7.108,0,10.983-2.847,11.899-7.623C256.037,183.829,251.428,178.97,241.944,178.97z M249.497,165.736
	c2.514-6.54-1.68-11.74-10.303-11.74h-5.54v17.101h6.373C245.138,171.097,248.248,169.18,249.497,165.736z M434.993,213.072
	c11.483,2.235,18.426,16.176,11.136,29.798c-7.221,13.719-22.938,15.76-31.02,7.304c8.803,7.665,7.512,23.188-5.151,31.409
	c-12.733,7.72-26.8,2.305-30.438-8.679h-0.014c4.374,10.983-3.166,23.758-16.898,26.202c-13.705,2.499-24.661-7.221-24.827-18.731
	h-0.014c0.708,11.844-10.914,21.55-22.897,20.369c-12.622-1.014-20.772-11.607-19.564-23.175
	c-1.208,11.706-11.553,20.037-22.911,19.204c-11.386-1.042-20.064-10.789-19.551-22.578c-0.681,11.636-10.372,20.717-21.605,20.468
	c-11.192-0.042-20.578-9.512-20.96-21.134c0.215,11.816-8.644,21.425-19.71,22.271c-11.046,0.764-21.182-7.456-22.745-19.036
	c0-0.042,0-0.069,0-0.084h-0.021c0,0.028,0.021,0.042,0.021,0.084c1.805,11.524-6.672,22.452-19.287,23.563
	c-12.323,1.139-22.959-8.096-23.119-19.814c0.257,11.441-10.449,21.383-24.14,19.411c-13.781-1.527-21.724-14.76-17.87-25.466
	c-3.118,11.192-16.927,17.302-29.861,9.998c-13.024-7.179-15.288-22.647-6.866-30.854h-0.014
	c-7.609,8.831-23.223,7.762-31.471-5.359c-8.144-13.303-1.659-27.854,9.373-30.493c-10.706,3.818-23.987-5.054-24.542-19.897
	C-0.6,183.19,10.633,173.526,22.221,175.54c-11.573-1.431-19.453-13.983-15.274-27.14c4.312-12.67,17.635-19.113,28.083-13.323
	c-10.595-5.166-13.948-19.238-6.554-30.118c7.38-10.845,21.397-12.754,30.333-5.117c-9.005-7.228-9.984-21.599-0.583-30.701
	c9.165-9.31,23.529-8.373,30.68,0.639c-7.693-9.025-5.401-22.73,5.332-30.284c11.06-7.095,24.598-3.895,30.062,6.714
	c-5.506-10.025-0.882-23.834,11.358-28.521c12.157-4.978,24.813,1.09,28.042,12.539c-3.347-10.935,3.964-23.404,16.773-25.681
	c12.872-2.02,24.029,5.714,25.015,17.704C204.217,10.636,213.646,0.625,226.559,0c12.858,0.097,22.425,10.407,21.467,21.883h0.015
	c0.833-11.789,11.802-20.55,24.618-18.176c12.858,1.569,20.328,14.191,17.343,25.14c0,0,0,0,0.015,0.014
	c2.93-11.046,15.593-18.127,27.688-13.094c12.386,4.276,17.273,17.947,12.052,28.167h0.028c5.109-10.379,18.856-14.476,29.798-7.262
	c11.261,6.811,13.274,21.21,6.082,30.097c7.206-9.442,21.105-10.206,30.742-1.361c9.345,9.067,9.012,23.133,0.028,30.708v0.014
	c8.775-7.79,22.813-6.172,30.408,4.464c7.665,10.623,4.485,24.758-5.831,30.229c10.039-6.464,24.091-0.382,28.59,12.358
	c4.484,12.955-2.61,25.667-14.302,27.583v0.015c11.288-2.431,23.133,6.637,23.229,21.217
	C458.403,206.685,446.337,216.154,434.993,213.072z M88.33,197.84H69.216v-51.89H59.58v60.346h28.75V197.84z M102.236,165.57h-9.387
	v40.726h9.387V165.57z M101.736,150.06c-1.18-1.076-2.687-1.659-4.277-1.659c-3.36,0-5.859,2.569-5.859,5.443
	c0,2.999,2.499,5.603,5.859,5.603c1.59,0,3.18-0.597,4.36-1.68C104.083,155.662,104.083,152.08,101.736,150.06z M156.875,205.963
	l-1.75-7.457l-0.75,0.333l-0.84,0.25c-5.117,1.431-7.963-0.749-8.22-4.109v-1.417l-0.083-2.027v-18.093h10.719v-7.872h-10.719
	v-10.644h-9.303v10.644h-4.277h-1.68h-9.039v-10.644h-9.317v10.644h-5.943v7.872h5.943v19.273c0,5.943,0.431,7.706,2.104,10.053
	c2.93,4.027,8.463,5.791,17.433,3.61c0.5-0.166,0.923-0.25,1.423-0.416l-1.763-7.457l-0.75,0.333l-0.826,0.25
	c-5.117,1.431-7.977-0.749-8.234-4.109v-1.417l-0.069-2.027v-18.093h9.039h1.68h4.277v19.273c0,5.943,0.43,7.706,2.097,10.053
	c2.937,4.027,8.456,5.791,17.426,3.61C155.951,206.213,156.375,206.129,156.875,205.963z M168.789,145.95h-9.394v60.346h9.394
	V145.95z M217.304,185.426c-0.84-14.829-11.56-23.383-25.396-20.439c-8.456,1.764-14.739,8.54-15.996,17.927
	c-2.013,14.329,7.54,24.979,21.613,24.729c7.47-0.181,12.997-2.847,17.433-8.554l0.688-0.833l0.583-0.764l-7.38-4.679
	c-0.674,1.166-1.423,2.166-2.347,3.013c-2.86,2.93-5.943,4.276-9.213,4.36c-0.84,0.069-1.68,0-2.437-0.167
	c-4.86-0.847-8.213-4.11-9.47-9.15c-0.083-0.5-0.167-0.986-0.25-1.5h32.103C217.304,188.12,217.388,186.759,217.304,185.426z
	 M254.19,174.192c-0.749-0.235-1.43-0.416-2.18-0.5c5.624-2.43,8.887-9.053,6.873-16.593c-1.166-4.367-4.359-7.963-9.22-9.879
	c-2.347-0.944-4.36-1.271-10.386-1.271h-15.261v60.346h20.87c10.566,0,17.606-5.36,19.203-13.83
	C265.758,183.662,261.397,176.456,254.19,174.192z M293.584,174.623l2.013-9.47c-0.43-0.167-0.847-0.264-1.249-0.348
	c-6.138-1.18-11.414,1.431-13.844,6.457c-0.25,0.583-0.417,1.097-0.667,1.681v-7.373h-9.303v40.726h9.303v-21.022
	c0-4.124,0.5-5.79,2.264-7.887c2.43-3.027,6.29-4.277,10.483-3.11C292.903,174.359,293.251,174.456,293.584,174.623z
	 M336.156,165.57h-9.316v6.025c-5.68-9.136-20.356-9.803-28.146-0.069c-2.43,3.097-4.026,6.693-4.609,10.97
	c-0.431,2.777-0.334,5.54,0.25,8.29c1.763,9.233,7.72,15.093,15.593,16.523c7.442,1.25,13.732-1.514,16.913-6.623v5.609h9.316
	V165.57z M354.43,165.57h-9.4v40.726h9.4V165.57z M353.916,150.06c-1.166-1.076-2.666-1.659-4.263-1.659
	c-3.36,0-5.874,2.569-5.874,5.443c0,2.999,2.514,5.603,5.874,5.603c1.597,0,3.18-0.597,4.346-1.68
	C356.263,155.662,356.263,152.08,353.916,150.06z M399.099,180.566c0-11.566-6.275-17.607-16.51-15.927
	c-4.026,0.666-7.47,2.86-9.733,6.373c-0.236,0.25-0.416,0.583-0.583,0.833v-6.275h-9.303v40.726h9.303v-22.203
	c0-6.526,2.777-10.316,7.207-11.399c6.304-1.431,10.233,2.347,10.233,10.136v23.467h9.386V180.566z M194.019,172.026
	c-0.771,0.167-1.514,0.403-2.194,0.75c-3.013,1.416-5.359,4.276-6.353,8.123c-0.173,0.5-0.257,1.083-0.34,1.68h22.459
	c0-0.514-0.083-0.916-0.167-1.43C206.501,174.54,200.794,170.513,194.019,172.026z"/>
</svg>
